
        <svg width="400px" height="400px" viewBox="0 0 400 400" version="1.1" xmlns="http://www.w3.org/2000/svg" xmlns:xlink="http://www.w3.org/1999/xlink">
          <defs>
            <linearGradient x1="0%" y1="50%" x2="100%" y2="50%" id="shadeGradientLight">
              <stop stop-color="#e5e6e7" offset="0%"></stop>
              <stop stop-color="#cccdcf" offset="16.67%"></stop>
              <stop stop-color="#b2b4b7" offset="33.33%"></stop>
              <stop stop-color="#999ba0" offset="50%"></stop>
              <stop stop-color="#7f8288" offset="66.67%"></stop>
              <stop stop-color="#666970" offset="83.33%"></stop>
              <stop stop-color="#4c5058" offset="100%"></stop>
            </linearGradient>
            <linearGradient x1="0%" y1="50%" x2="100%" y2="50%" id="shadeGradientDark">
              <stop stop-color="#2f323e" offset="0%"></stop>
              <stop stop-color="#474b56" offset="16.67%"></stop>
              <stop stop-color="#60646f" offset="33.33%"></stop>
              <stop stop-color="#797c87" offset="50%"></stop>
              <stop stop-color="#9295a0" offset="66.67%"></stop>
              <stop stop-color="#aaaeb8" offset="83.33%"></stop>
              <stop stop-color="#c3c7d1" offset="100%"></stop>
            </linearGradient>
          </defs>
          <g id="light">
            <rect fill="#ffffff" x="0" y="0" width="400" height="200"></rect>
            <rect fill="#ff4972" x="28" y="28" width="74" height="37"></rect>
            <rect fill="#dcdfe4" x="118" y="28" width="74" height="37"></rect>
            <rect fill="#ffff80" x="208" y="28" width="74" height="37"></rect>
            <rect fill="#95ffc3" x="298" y="28" width="74" height="37"></rect>
            <rect fill="#24e5ff" x="28" y="81" width="74" height="37"></rect>
            <rect fill="#a0dbff" x="118" y="81" width="74" height="37"></rect>
            <rect fill="#4c5058" x="208" y="81" width="74" height="37"></rect>
            <rect fill="#eb71ad" x="298" y="81" width="74" height="37"></rect>
            <rect fill="url(#shadeGradientLight)" x="28" y="134" width="344" height="37"></rect>
          </g>
          <g id="dark" transform="translate(0.000000, 200.000000)">
            <rect fill="#161925" x="0" y="0" width="400" height="200"></rect>
            <rect fill="#ed254e" x="28" y="28" width="74" height="37"></rect>
            <rect fill="#dcdfe4" x="118" y="28" width="74" height="37"></rect>
            <rect fill="#f9dc5c" x="208" y="28" width="74" height="37"></rect>
            <rect fill="#71f79f" x="298" y="28" width="74" height="37"></rect>
            <rect fill="#00c1e4" x="28" y="81" width="74" height="37"></rect>
            <rect fill="#7cb7ff" x="118" y="81" width="74" height="37"></rect>
            <rect fill="#c3c7d1" x="208" y="81" width="74" height="37"></rect>
            <rect fill="#c74d89" x="298" y="81" width="74" height="37"></rect>
            <rect fill="url(#shadeGradientDark)" x="28" y="134" width="344" height="37"></rect>
          </g>
        </svg>
      